<svg version="1.1" viewBox="0.0 0.0 960.0 540.0" fill="none" stroke="none" stroke-linecap="square" stroke-miterlimit="10" xmlns:xlink="http://www.w3.org/1999/xlink" xmlns="http://www.w3.org/2000/svg"><clipPath id="g2a910d86c77_0_0.0"><path d="m0 0l960.0 0l0 540.0l-960.0 0l0 -540.0z" clip-rule="nonzero"/></clipPath><g clip-path="url(#g2a910d86c77_0_0.0)"><path fill="#ffffff" d="m0 0l960.0 0l0 540.0l-960.0 0z" fill-rule="evenodd"/><path fill="#000000" fill-opacity="0.0" d="m-8.000096 43.98698l972.3229 0l0 511.99448l-972.3229 0z" fill-rule="evenodd"/><path fill="#000000" d="m78.59365 214.03322l-25.874996 0l-8.46875 47.593735l-39.125 0l27.609375 -156.46875l66.28125 0q24.5625 0 34.984383 11.296875q7.609375 8.6875 7.609375 22.171883q0 4.5625 -0.875 9.5625l-4.34375 24.546875q-3.25 18.046875 -19.125008 29.671875q-15.859375 11.625 -38.671875 11.625zm6.734375 -74.984375l-19.5625 0l-7.171871 41.078125l19.343746 0q17.8125 0 20.640625 -15.859375l1.53125 -8.90625q0.421875 -1.96875 0.421875 -5.21875q0 -3.265625 -3.265625 -7.171875q-3.25 -3.921875 -11.9375 -3.921875zm132.78452 122.57811l1.296875 -34.124985l-36.28125 0l-10.65625 34.124985l-41.515625 0l55.859375 -156.46875l71.71875 0l0.875 156.46875l-41.296875 0zm-8.90625 -118.437485l-17.171875 55.1875l28.46875 0l2.390625 -55.1875l-13.6875 0zm161.46353 -38.031258q24.78125 0 35.21875 10.859375q7.8125 8.265625 7.8125 20.859383q0 4.34375 -0.859375 9.125l-3.046875 16.953125q-2.609375 14.125 -9.03125 22.828125q-6.40625 8.6875 -14.21875 12.390625l19.765625 63.45311l-43.890625 0l-18.265625 -58.468735l-13.46875 0l-8.90625 58.468735l-41.734375 0l27.609375 -156.46875l63.015625 0zm-13.6875 33.890633l-16.296875 0l-5.65625 37.8125l15.21875 0q11.515625 0 16.515625 -5.53125q5.0 -5.546875 5.0 -14.671875q0 -17.609375 -14.78125 -17.609375zm120.614075 125.624985q-31.078125 0 -43.03125 -13.48436q-8.25 -9.5625 -8.25 -26.71875q0 -7.390625 1.515625 -15.875l8.90625 -49.984375q9.78125 -54.984383 70.640625 -54.984383q25.203094 0 38.234344 10.765625q13.046875 10.75 13.046875 29.437508q0 8.703125 -2.5 17.28125q-2.5 8.578125 -4.890625 12.71875l-2.390625 4.34375l-38.453094 0q7.1718445 -8.265625 7.1718445 -23.46875q0 -8.046875 -4.140625 -12.71875q-4.1249695 -4.671875 -12.1718445 -4.671875q-21.9375 0 -26.078125 24.34375l-7.609375 43.890625q-1.078125 5.65625 -1.078125 11.09375q0 14.34375 17.171875 14.34375q20.640625 0 24.765625 -23.25l39.12497 0l-1.09375 6.296875q-8.6875 50.64061 -68.890594 50.64061zm194.73624 -3.046875l-109.109375 0l27.609375 -156.46875l109.09375 0l-6.078125 33.890633l-69.984375 0l-5.0 29.34375l57.8125 0l-6.09375 33.90625l-57.796875 0l-4.359375 25.421875l69.984375 0l-6.078125 33.906235zm124.09143 0l-99.109375 0l27.609375 -156.46875l39.109375 0l-21.515625 122.56251l59.984375 0l-6.078125 33.906235zm58.894104 -44.54686q0 14.984375 21.625 14.984375q21.625 0 21.625 -13.46875q0 -7.171875 -7.390625 -11.734375q-7.390625 -4.5625 -17.9375 -7.609375q-10.53125 -3.046875 -21.078125 -7.0625q-10.53125 -4.015625 -17.921875 -12.59375q-7.390625 -8.59375 -7.390625 -21.421875q0 -54.546883 70.1875 -54.546883q25.65625 0 38.796875 9.671875q13.15625 9.671875 13.15625 26.843758q0 6.296875 -1.640625 12.0625q-1.625 5.75 -3.359375 8.140625l-1.75 2.609375l-38.453125 0q4.78125 -5.0 4.78125 -12.59375q0 -14.125 -18.484375 -14.125q-23.25 0 -23.25 14.765625q0 7.390625 7.390625 11.75q7.390625 4.34375 17.921875 6.84375q10.546875 2.484375 21.1875 6.1875q10.65625 3.6875 18.046875 12.28125q7.390625 8.578125 7.390625 22.265625q0 27.609375 -16.515625 40.984375q-16.515625 13.35936 -50.859375 13.35936q-34.328125 0 -46.9375 -12.17186q-9.34375 -9.125 -9.34375 -25.21875q0 -6.078125 1.296875 -13.25l0.65625 -3.484375l39.125 0l-0.4375 2.609375q-0.4375 2.171875 -0.4375 3.921875z" fill-rule="nonzero"/><path fill="#000000" fill-opacity="0.0" d="m380.69827 214.58792l567.208 0l0 274.0054l-567.208 0z" fill-rule="evenodd"/><path fill="#3cc600" d="m390.79202 415.1029q0 -15.703125 7.359375 -23.46875q7.375 -7.78125 22.578125 -7.78125q22.765625 0 22.765625 20.609375q0 15.53125 -7.515625 23.171875q-7.5 7.640625 -22.640625 7.640625q-22.546875 0 -22.546875 -20.171875zm124.25241 20.171875q-33.109344 0 -46.43747 -15.03125q-9.359375 -10.859375 -9.359375 -29.6875q0 -7.796875 1.578125 -16.671875l8.90625 -49.984375q10.453125 -58.703125 75.09372 -58.703125q26.828125 0 41.3125 11.953125q14.484375 11.953125 14.484375 32.765625q0 9.34375 -2.671875 18.5q-2.65625 9.140625 -5.296875 13.71875l-3.65625 6.640625l-51.015625 0q12.546875 -14.46875 12.546875 -27.984375q0 -6.34375 -2.890625 -9.609375q-2.890625 -3.265625 -8.90625 -3.265625q-18.125 0 -21.625 20.59375l-7.6249695 43.9375q-1.0 5.265625 -1.0 10.28125q0 9.828125 12.6562195 9.828125q16.859375 0 20.984375 -23.25l48.28125 0l-2.015625 11.578125q-9.328125 54.390625 -73.34375 54.390625zm170.17383 -170.07812q56.890625 0 56.890625 47.328125q0 7.578125 -1.59375 16.234375l-7.59375 43.453125q-5.5 31.828125 -24.15625 47.453125q-18.640625 15.609375 -52.03125 15.609375q-33.37506 0 -47.109436 -16.15625q-9.546875 -11.265625 -9.546875 -30.53125q0 -8.234375 1.8125 -17.953125l7.59375 -43.453125q10.859375 -61.984375 75.734436 -61.984375zm-22.390625 127.359375q9.1875 0 14.453125 -4.5625q5.28125 -4.578125 7.609375 -18.21875l7.390625 -41.6875q0.59375 -3.953125 0.59375 -7.078125q0 -13.09375 -13.265625 -13.09375q-18.609375 0.359375 -22.328125 21.6875l-7.375 41.703125q-0.8125 5.046875 -0.8125 10.546875q0 10.703125 13.734375 10.703125zm153.94647 -125.828125l21.421875 69.09375l46.0625 -69.09375l48.875 0l-29.203125 165.5l-48.5 0l12.609375 -71.109375l-22.5625 35.46875l-34.375 0l-10.359375 -36.875l-12.859375 72.515625l-48.28125 0l29.203125 -165.5l47.96875 0z" fill-rule="nonzero"/></g></svg>